<?xml version="1.0" encoding="UTF-8"?>
<svg width="348px" height="242px" viewBox="0 0 348 242" version="1.1" xmlns="http://www.w3.org/2000/svg" xmlns:xlink="http://www.w3.org/1999/xlink">
    <!-- Generator: Sketch 53.2 (72643) - https://sketchapp.com -->
    <title>Group 4</title>
    <desc>Created with Sketch.</desc>
    <g id="Page-1" stroke="none" stroke-width="1" fill="none" fill-rule="evenodd">
        <g id="TutorEye---Contact" transform="translate(-161.000000, -212.000000)">
            <g id="Group-4" transform="translate(161.000000, 212.000000)">
                <g id="TDV_M16_09" transform="translate(178.500000, 120.500000) scale(-1, 1) translate(-178.500000, -120.500000) translate(9.000000, 0.000000)">
                    <path d="M206.831162,139.00902 L215.033167,139.00902 C218.686657,139.00902 221.18611,137.840904 224.314384,132.601686 L231.394009,120.746025 C231.394009,120.746025 234.090598,116.467259 241.001867,116.467259 L261.728478,116.467259 C264.39341,116.467259 269.626865,116.84942 271.405405,120.953691 C273.183945,125.057961 280.039094,141.175083 280.039094,141.175083 L266.957616,142.149955 L254.41862,162.772257 C254.41862,162.772257 237.138291,164.109101 233.681937,163.726939 C230.225583,163.344778 217.093741,162.573244 217.093741,162.573244 L206.831162,139.00902 Z" id="Path" fill="#20288A"></path>
                    <path d="M244.521534,235.863172 L244.521534,168.442668 C244.512874,168.020631 244.165651,167.684887 243.744502,167.691324 L243.168923,167.691324 C242.747774,167.684887 242.400551,168.020631 242.391891,168.442668 L242.391891,235.863172 C242.401329,236.284868 242.748086,236.620162 243.168923,236.614516 L243.744502,236.614516 C244.165339,236.620162 244.512096,236.284868 244.521534,235.863172 Z" id="Path" fill="#00000F"></path>
                    <path d="M244.528729,167.004876 L242.387574,167.004876 C240.790341,167.004876 239.482337,168.268172 239.482337,169.814123 L239.482337,172.536844 C239.482337,174.081353 240.790341,175.34465 242.387574,175.34465 L244.528729,175.34465 C246.1274,175.34465 247.433965,174.081353 247.433965,172.536844 L247.433965,169.814123 C247.433965,168.268172 246.1274,167.004876 244.528729,167.004876 Z" id="Path" fill="#141A33"></path>
                    <path d="M245.222302,232.503035 L241.694001,232.503035 C240.852252,232.490153 240.158036,233.160774 240.139937,234.004281 L240.139937,235.111828 C240.158036,235.955561 240.852015,236.626597 241.694001,236.614516 L245.222302,236.614516 C246.064533,236.626607 246.758927,235.95579 246.777805,235.111828 L246.777805,234.004281 C246.758927,233.160545 246.064296,232.490144 245.222302,232.503035 Z" id="Path" fill="#141A33"></path>
                    <path d="M252.819949,234.558055 L234.100671,234.558055 C232.78835,234.558055 231.714895,235.59638 231.714895,236.865445 L231.714895,238.565703 C231.714895,239.833326 232.78835,240.873094 234.100671,240.873094 L252.824266,240.873094 C254.138026,240.873094 255.211481,239.834768 255.211481,238.565703 L255.211481,236.865445 C255.207164,235.59638 254.133709,234.558055 252.819949,234.558055 Z" id="Path" fill="#030822"></path>
                    <path d="M258.377167,168.400847 L258.377167,168.400847 C258.377167,167.309163 257.453362,166.417933 256.325227,166.417933 L230.592515,166.417933 C230.057958,166.407898 229.541345,166.61124 229.15647,166.983168 C228.771595,167.355096 228.550028,167.865101 228.540575,168.400847 L228.540575,168.400847 C228.563406,169.515393 229.480313,170.4021 230.592515,170.385203 L256.325227,170.385203 C257.437116,170.401307 258.353556,169.515051 258.377167,168.400847 L258.377167,168.400847 Z" id="Path" fill="#030822"></path>
                    <path d="M263.8869,167.583165 L263.8869,167.583165 C263.872758,166.957787 263.359879,166.459841 262.735741,166.465523 L224.220852,166.465523 C223.596714,166.459841 223.083835,166.957787 223.069693,167.583165 L223.069693,167.583165 C223.08306,168.20911 223.596166,168.70792 224.220852,168.70225 L262.735741,168.70225 C263.360427,168.70792 263.873533,168.20911 263.8869,167.583165 Z" id="Path" fill="#00000F"></path>
                    <path d="M236.585734,163.238061 L262.685378,163.238061 C263.934385,163.238061 264.957478,164.227355 264.957478,165.43585 L264.957478,165.43585 C264.957478,166.644346 263.934385,167.632197 262.685378,167.632197 L236.585734,167.632197 C235.336727,167.632197 234.313635,166.644346 234.313635,165.43585 L234.313635,165.43585 C234.313635,164.227355 235.336727,163.238061 236.585734,163.238061 Z" id="Path" fill="#6197B5"></path>
                    <path d="M221.725716,163.238061 L243.976173,163.238061 C245.22518,163.238061 246.248272,164.227355 246.248272,165.43585 L246.248272,165.43585 C246.248272,166.644346 245.22518,167.632197 243.976173,167.632197 L221.725716,167.632197 C220.47527,167.632197 219.453616,166.644346 219.453616,165.43585 L219.453616,165.43585 C219.446422,164.227355 220.468075,163.238061 221.725716,163.238061 Z" id="Path" fill="#8FBAD8"></path>
                    <path d="M268.051216,120.953691 C269.544845,124.404681 274.630088,136.339658 276.21437,140.058883 L278.32099,140.058883 C279.067194,140.052471 279.745819,140.491148 280.047728,141.175083 C280.047728,141.175083 273.186823,125.059403 271.414038,120.953691 C269.641254,116.847978 264.402044,116.467259 261.737111,116.467259 L258.375728,116.467259 C261.04066,116.467259 266.274115,116.84942 268.051216,120.953691 Z" id="Path" fill="#75A5C6"></path>
                    <path d="M197.647794,142.617202 C196.980906,142.655025 196.347873,142.319953 196.003055,141.746622 C195.658237,141.173291 195.658237,140.455815 196.003055,139.882484 C196.347873,139.309153 196.980906,138.974081 197.647794,139.011904 L207.720432,139.011904 C208.484344,139.006548 209.17475,139.467263 209.464437,140.175694 L219.584561,161.827669 L253.63871,161.827669 L265.840992,140.97607 C266.181547,140.407368 266.796587,140.061332 267.45837,140.066093 L267.45837,140.066093 L278.32099,140.066093 C278.987879,140.02827 279.620911,140.363342 279.965729,140.936673 C280.310548,141.510004 280.310548,142.22748 279.965729,142.800811 C279.620911,143.374142 278.987879,143.709214 278.32099,143.671391 L268.536142,143.671391 L256.405808,164.400409 C256.087312,165.042134 255.431613,165.445712 254.716483,165.440177 L218.384478,165.440177 L218.384478,165.440177 C217.661366,165.445028 217.000229,165.031749 216.686519,164.378777 L206.51891,142.624412 L197.647794,142.617202 Z" id="Path" fill="#A1C6E5"></path>
                    <polygon id="Path" fill="#FFFFFF" points="187.385215 236.526501 184.373496 236.526501 175.257759 129.273275 124.177973 129.273275 115.060797 236.526501 112.050517 236.526501 118.835158 124.318154 180.600574 124.318154"></polygon>
                    <path d="M219.479517,154.018594 C218.102444,157.073002 198.203228,158.200739 198.203228,158.200739 C196.515342,178.967253 193.292098,192.588066 190.906321,200.564426 C189.59544,204.948468 188.537813,207.630809 188.129151,208.846515 C186.977993,212.281643 187.783804,215.58698 187.783804,215.58698 C187.798193,216.221512 187.792917,216.836816 187.767975,217.432892 C187.281611,229.62745 179.23789,233.891796 179.23789,233.891796 L177.421937,234.180219 L176.735559,234.286936 L171.795649,235.052701 C172.780684,234.326463 173.653445,233.458581 174.385756,232.477077 L174.385756,232.477077 C188.134907,214.358294 173.378493,148.023706 178.165873,141.349579 C183.222338,134.296175 210.890435,133.324187 210.890435,133.324187 C210.890435,133.324187 220.862347,150.964186 219.479517,154.018594 Z" id="Path" fill="#F46E60" fill-rule="nonzero"></path>
                    <path d="M188.127712,208.847958 C186.976554,212.283085 187.782365,215.588422 187.782365,215.588422 C187.796754,216.222954 187.791478,216.838258 187.766536,217.434334 C185.665672,221.929419 181.819363,229.820694 179.515607,232.563604 C178.732819,233.496655 178.032051,233.979765 177.420498,234.175893 C177.198804,234.247735 176.967113,234.283758 176.73412,234.28261 C175.25632,234.263862 174.441875,232.580909 174.391512,232.472751 L174.391512,232.472751 L174.391512,232.472751 L174.391512,232.472751 C178.955856,233.979765 186.203839,216.618095 186.35205,212.87147 C186.495945,209.185413 190.769621,200.829776 190.904883,200.570195 C189.594001,204.947026 188.536374,207.629367 188.127712,208.847958 Z" id="Path" fill="#E54F48" fill-rule="nonzero"></path>
                    <path d="M181.128668,138.915282 C181.128668,138.915282 185.246938,138.626859 188.811213,141.531286 C193.007186,144.949108 184.926052,174.751939 192.942433,192.97167 C200.958814,211.191401 212.319311,133.316977 212.319311,133.316977 C212.319311,133.316977 191.100579,131.847457 181.128668,138.915282 Z" id="Path" fill="#E54F48" fill-rule="nonzero" opacity="0.64"></path>
                    <path d="M203.89283,136.077192 C203.89283,136.077192 192.812928,137.519311 191.630112,142.386463 C190.447297,147.253614 192.835951,191.804996 192.835951,191.804996 L208.614019,136.860263 L203.89283,136.077192 Z" id="Path" fill="#E54F48" fill-rule="nonzero"></path>
                    <path d="M186.963603,216.628189 C186.785362,217.392201 186.554579,218.142935 186.272908,218.875011 C185.421051,220.921378 184.082829,222.768732 182.915842,224.627623 C181.653884,226.633611 180.491214,228.711704 179.209111,230.701828 C178.555828,231.711312 177.819087,232.510246 176.607492,232.684742 C176.049859,232.761253 175.483699,232.749573 174.929679,232.650131 C174.588648,232.589562 174.241862,232.361707 173.910903,232.328539 C173.623114,232.304023 173.351153,232.487172 173.113726,232.616962 C172.201433,233.133241 171.363965,233.785079 170.455989,234.311452 C169.664567,234.771488 168.811271,235.054143 167.995387,235.465147 C167.740693,235.590612 167.380956,235.753571 167.29318,236.060743 C167.162236,236.519336 167.622699,236.996678 167.965169,237.192806 C168.996895,237.784075 170.555276,237.538914 171.674778,237.553336 C174.061993,237.58362 176.545618,237.799938 178.925638,237.492767 C179.705548,237.391818 180.508481,237.211553 181.027942,236.551063 C181.997793,235.322378 182.322995,233.476465 182.881307,232.040115 C183.350404,230.825851 183.905838,229.569765 184.808059,228.63383 C185.469408,227.964614 186.269024,227.448739 187.150666,227.122489 C187.455724,227.00712 187.598179,226.914824 187.740635,227.240743 C187.976623,227.777211 187.772292,228.682862 187.780926,229.259709 C187.796754,230.426384 187.825533,236.295808 187.825533,236.715465 C187.825533,236.884192 187.746391,237.315386 187.825533,237.463924 C187.930576,237.657168 187.790998,237.541799 188.097494,237.599483 C188.241389,237.628326 188.988203,237.696105 189.120587,237.599483 C189.319162,237.455272 189.216996,236.266966 189.228508,235.938162 C189.267839,234.775815 189.334031,233.614428 189.427083,232.454003 C189.604073,230.228813 189.733579,227.927192 190.290452,225.762571 C190.749476,223.980112 191.276131,222.475982 191.189794,220.594017 C191.145187,219.598954 190.994097,218.54765 190.526439,217.663631 C189.853011,216.39024 188.521984,215.426904 187.496014,214.490969 L186.963603,216.628189 Z" id="Path" fill="#CE0F00" fill-rule="nonzero"></path>
                    <path d="M200.089689,112.005342 C200.089689,112.005342 192.220081,110.52717 188.155052,110.677151 C186.154914,110.750699 183.613732,115.671209 182.22083,118.070895 L203.661159,118.003115 L200.089689,112.005342 Z" id="Path" fill="#F87B67" fill-rule="nonzero"></path>
                    <path d="M199.479575,111.895741 C199.479575,111.895741 196.482246,117.002285 187.385215,117.248887 L187.385215,118.33336 L202.72872,118.003115 L200.761678,112.005342 L199.479575,111.895741 Z" id="Path" fill="#E54F48" fill-rule="nonzero" opacity="0.64"></path>
                    <path d="M200.089689,113.228259 C200.089689,113.228259 199.876725,117.220045 196.803132,117.540195 C193.729538,117.860345 193.040282,117.998789 193.040282,117.998789 L200.688292,117.998789 L200.089689,113.228259 Z" id="Path" fill="#E54F48"></path>
                    <polygon id="Path" fill="#030822" fill-rule="nonzero" points="260.80899 46.482667 260.80899 72.8893075 234.352487 74.3689216 234.352487 47.9507442"></polygon>
                    <path d="M241.91416,56.3294554 C241.91416,56.3294554 242.799113,70.228598 241.91416,73.1849419 C241.029207,76.1412858 252.645836,64.6591345 252.645836,64.6591345 C252.645836,64.6591345 251.993993,47.3133276 252.583961,46.5244885 C253.17393,45.7356494 241.91416,56.3294554 241.91416,56.3294554 Z" id="Path" fill="#F4695B" fill-rule="nonzero"></path>
                    <path d="M252.464529,60.4250732 C252.464529,60.4250732 244.432319,66.4819729 243.399155,66.6261848 C242.36599,66.7703967 242.260946,64.9994746 242.260946,64.9994746 L239.168647,67.6111521 L241.870991,72.1999746 L252.897652,64.4615642 L252.464529,60.4250732 Z" id="Path" fill="#E54F48" opacity="0.64"></path>
                    <path d="M252.375314,54.4547007 C252.375314,54.4547007 245.528798,64.8379573 242.188999,61.7489385 L242.030715,57.0187882 L252.375314,50.8421927 L252.375314,54.4547007 Z" id="Path" fill="#E54F48" fill-rule="nonzero" opacity="0.64"></path>
                    <path d="M252.375314,52.5828303 C252.375314,52.5828303 242.508446,61.7489385 242.114174,59.5352858 C242.079639,59.3362734 242.052299,58.6700145 242.052299,58.6700145 L252.471723,52.0982783 L252.375314,52.5828303 Z" id="Path" fill="#D34040" fill-rule="nonzero"></path>
                    <path d="M257.16989,45.5842269 C255.782743,51.755054 244.545996,57.4499818 242.622122,58.3772643 C237.873593,61.0350896 232.796984,57.8004167 229.661515,53.3889748 C227.205231,49.936542 225.946151,45.767376 226.982194,43.1499301 C228.421142,39.5302115 228.144864,36.7699958 227.908876,34.0948651 L227.908876,34.0862124 C227.756348,32.3657645 227.621087,30.6828116 227.969312,28.8296887 C228.852826,24.0923279 233.181183,24.0923279 233.181183,24.0923279 C233.181183,24.0923279 258.351266,40.3421245 257.16989,45.5842269 Z" id="Path" fill="#F87B67" fill-rule="nonzero"></path>
                    <path d="M255.153923,49.790888 L248.785138,36.4844562 L230.85872,25.0801794 C230.85872,25.0801794 225.937517,26.6665103 227.881536,33.8064413 C227.881536,33.8064413 228.203861,28.359558 230.170903,28.3509052 C232.137945,28.3422525 231.137876,37.2199369 244.154602,41.4020819 C244.154602,41.4020819 246.025235,41.6414737 245.593551,43.7094723 C245.213668,45.5424055 245.93602,50.4254203 249.812547,52.324691 C248.267117,53.645672 244.151724,56.5832683 238.860712,55.8045241 C238.799637,54.7140974 237.93111,53.8435901 236.843086,53.7822978 C235.755061,53.7210055 234.794666,54.4884832 234.612046,55.5651817 C234.429427,56.6418801 235.082846,57.684286 236.129967,57.9867356 C237.177089,58.2891852 238.283836,57.755184 238.700988,56.7462278 C241.040718,56.9654298 246.361949,56.8990924 250.917659,52.7558846 C251.100406,52.8106851 251.28603,52.8597171 251.478849,52.9000965 L255.153923,49.790888 Z" id="Path" fill="#E54F48" fill-rule="nonzero" opacity="0.64"></path>
                    <path d="M231.831449,27.6010034 C231.831449,27.6010034 230.903328,32.8185898 241.257999,38.3880533 C241.257999,38.3880533 244.551752,39.5071376 245.194962,39.9166994 C246.068404,40.4704731 246.364827,42.5975985 246.364827,42.5975985 L249.405325,39.2014084 L231.831449,27.6010034 Z" id="Path" fill="#D34040" fill-rule="nonzero"></path>
                    <path d="M229.927721,27.3471904 C229.927721,27.3471904 227.481509,28.7056665 227.782249,32.8200319 C227.782249,32.8200319 225.108683,24.129823 230.911961,21.571504 C236.71524,19.0131849 236.500837,22.9516118 236.500837,22.9516118 L229.927721,27.3471904 Z" id="Path" fill="#13193A" fill-rule="nonzero"></path>
                    <path d="M238.810348,65.561901 C238.810348,65.561901 228.678714,68.5427609 227.564968,69.4729277 C226.829665,70.0843861 225.269845,71.5423684 223.957524,82.1895327 C222.645204,92.8366971 221.334322,106.043623 221.334322,106.043623 C221.334322,106.043623 207.565026,109.395107 206.711729,109.461445 C205.858433,109.527782 200.092567,110.512749 200.092567,110.512749 L200.092567,118.070895 L281.075137,118.070895 C281.075137,118.070895 284.124269,117.939662 281.075137,107.588132 C278.026006,97.2366021 272.038542,71.5726529 266.235264,69.4037059 C260.431985,67.234759 253.927939,65.003801 253.927939,65.003801 L241.501182,68.1577152 L238.810348,65.561901 Z" id="Path" fill="#F2F2F2" fill-rule="nonzero"></path>
                    <path d="M228.678714,83.3763966 C228.678714,83.3763966 228.809658,117.483952 222.515698,118.075221 C216.221738,118.66649 206.449841,118.075221 206.449841,118.075221 L206.711729,109.465771 L207.459982,109.321559 C207.459982,109.321559 210.186789,121.3546 220.410517,113.33786 C220.410517,113.33786 226.115947,108.867292 226.377835,103.150732 C226.639724,97.4341724 227.760665,81.4006937 228.678714,83.3763966 Z" id="Path" fill="#A1C6E5" fill-rule="nonzero"></path>
                    <path d="M260.023324,85.3102782 C260.023324,85.3102782 270.904651,108.051052 268.481462,107.875114 C264.383337,107.579479 243.203458,110.348348 243.203458,110.348348 C243.203458,110.348348 263.990504,106.598838 264.777609,105.156719 C267.052586,100.983227 257.464874,83.2408375 260.023324,85.3102782 Z" id="Path" fill="#A1C6E5" fill-rule="nonzero"></path>
                    <path d="M222.143011,112.140902 C222.143011,112.140902 217.429016,113.272965 215.523849,118.070895 L232.840152,118.070895 C232.840152,118.070895 227.579357,110.943943 222.143011,112.140902 Z" id="Path" fill="#1F2A83" fill-rule="nonzero"></path>
                    <path d="M259.634808,85.8279989 C259.634808,85.8279989 258.062037,106.398384 243.203458,110.344021 C243.203458,110.344021 262.296862,107.027148 264.744513,105.645598 C267.972074,103.835738 259.634808,85.8279989 259.634808,85.8279989 Z" id="Path" fill="#A1C6E5" fill-rule="nonzero"></path>
                    <path d="M238.679404,68.9955863 C238.679404,68.9955863 238.334057,71.0145528 239.761493,70.5242324 C241.18893,70.0339119 243.10417,68.1577152 243.891275,68.7936896 C244.67838,69.4296641 245.66262,73.9175383 246.695785,73.7949582 C247.72895,73.6723781 257.18284,66.2122967 257.18284,66.2122967 L253.925061,64.9980325 C253.925061,64.9980325 243.301306,68.349517 240.498235,68.0538826 L238.679404,68.9955863 Z" id="Path" fill="#A1C6E5" fill-rule="nonzero"></path>
                    <path d="M219.469445,158.943431 C219.383108,159.306845 219.295332,159.632764 219.217629,159.916861 C219.207556,159.95724 219.194606,159.999062 219.183094,160.037999 C219.149998,160.157695 219.116902,160.27018 219.085246,160.372571 C219.077173,160.403318 219.067568,160.43364 219.056467,160.463424 C216.899621,160.435208 214.747218,160.259341 212.614295,159.937051 C209.227011,182.840784 204.525967,196.82357 201.630803,204.136555 L201.630803,204.136555 C200.491156,207.020793 199.630665,208.865263 199.24071,209.812735 C197.863636,213.16422 198.453605,216.514262 198.453605,216.514262 C198.407559,217.552588 198.328896,218.531306 198.217618,219.450416 C196.885152,230.58069 191.205623,233.273127 191.205623,233.273127 L181.927284,236.428483 C200.814919,224.603107 188.224122,148.498163 193.72666,141.793752 C196.005954,139.016231 201.256676,137.696692 206.626831,137.099655 L206.626831,137.099655 C207.867205,136.955443 209.113334,136.863147 210.329245,136.793925 C213.703579,138.277866 215.991507,140.317022 217.512475,142.591244 C218.246312,143.696472 218.833082,144.89296 219.257919,146.150393 C219.777073,147.701502 220.091513,149.314014 220.193236,150.946881 L220.193236,150.946881 C220.419151,154.116658 219.928469,157.031181 219.469445,158.943431 Z" id="Path" fill="#F87B67" fill-rule="nonzero"></path>
                    <path d="M212.319311,138.922493 C217.837677,144.483304 219.588877,148.873114 219.633485,152.189988 C219.679531,155.545798 215.296495,156.979265 213.389888,154.219049 C213.053403,153.732268 212.791943,153.197501 212.614295,152.632718 C213.4014,155.851528 212.614295,159.928398 212.614295,159.928398 L215.223108,160.140389 L215.171306,160.172116 L221.614917,160.699932 C221.614917,160.699932 226.852688,161.941596 227.695912,155.242953 C228.539136,148.544311 212.319311,138.922493 212.319311,138.922493 Z" id="Path" fill="#E54F48" fill-rule="nonzero" opacity="0.64"></path>
                    <path d="M268.609528,140.536224 C268.567799,140.103588 268.517436,139.670953 268.465633,139.238317 C268.438293,139.010462 268.409514,138.78405 268.377858,138.560521 C268.303032,137.993288 268.220533,137.433265 268.130359,136.880453 C267.479137,132.850691 266.52871,128.875264 265.286997,124.987297 C265.286997,124.987297 241.780338,123.565368 223.904283,124.257585 L223.904283,124.257585 C220.209064,124.401797 216.755588,124.632536 213.79855,124.987297 C196.675065,127.039433 178.963051,139.575773 178.688212,139.770459 C196.387275,133.120848 210.093258,137.885609 210.913458,138.246139 C222.682616,143.41902 220.253672,153.037953 219.473762,158.940546 C219.406329,159.312337 219.310108,159.678299 219.185972,160.035115 C219.152876,160.154811 219.11978,160.267296 219.088123,160.369686 C219.078051,160.401413 219.069417,160.430255 219.060783,160.46054 C218.916889,160.94365 218.813284,161.214768 218.813284,161.214768 C218.813284,161.214768 223.750316,161.768542 230.824186,162.095903 C234.277661,162.254536 246.25115,161.990628 248.452741,161.826226 C250.765131,161.653172 256.723816,161.537803 258.944113,161.214768 C259.328312,161.16141 259.699561,161.089304 260.057859,161.005661 C261.695483,160.648727 263.21654,159.882802 264.479747,158.779029 C266.271237,157.192698 267.409445,154.98914 268.077117,152.453895 C269.022506,148.861577 269.026823,144.607326 268.609528,140.536224 Z" id="Path" fill="#1B65F8" fill-rule="nonzero"></path>
                    <path d="M199.237832,209.812735 C197.860758,213.16422 198.450727,216.514262 198.450727,216.514262 C198.404681,217.552588 198.326018,218.531306 198.21474,219.450416 L190.516366,233.006335 L183.695752,235.436305 L185.487242,232.984703 C185.487242,232.984703 186.711787,236.621727 192.024384,227.748369 C197.336981,218.875011 197.006023,216.772401 197.006023,216.772401 C198.750029,207.521208 201.543027,204.225966 201.627925,204.132229 C200.488278,207.017909 199.627787,208.865263 199.237832,209.812735 Z" id="Path" fill="#E54F48" fill-rule="nonzero"></path>
                    <path d="M267.915955,135.630135 C267.915955,135.630135 264.443773,137.476048 261.296793,144.341976 C258.149813,151.207904 240.898262,162.460759 218.810406,161.214768 C218.810406,161.214768 254.444521,163.362083 262.16304,160.441792 C269.881559,157.521501 270.288781,148.623627 267.915955,135.630135 Z" id="Path" fill="#0959CC"></path>
                    <path d="M268.464195,139.238317 C268.464195,139.238317 266.649681,138.805681 264.957478,141.175083 C263.265274,143.544484 255.517977,160.509572 246.241077,161.976207 L257.352636,161.625772 L268.609528,140.536224 L268.464195,139.238317 Z" id="Path" fill="#0050AF"></path>
                    <path d="M211.625738,101.648044 L159.613513,101.648044 C157.969952,101.623888 156.602789,100.374392 156.427682,98.7364058 L152.931038,59.222346 C152.850525,58.469421 153.097502,57.7182218 153.608846,57.1607445 C154.12019,56.6032672 154.846348,56.2935338 155.601726,56.3107078 L207.61395,56.3107078 C209.257258,56.3355052 210.624061,57.584672 210.799781,59.222346 L214.296426,98.7364058 C214.376453,99.4892242 214.129309,100.240144 213.618072,100.797505 C213.106834,101.354866 212.380968,101.664743 211.625738,101.648044 L211.625738,101.648044 Z" id="Path" fill="#DEDEDE" fill-rule="nonzero"></path>
                    <path d="M209.618405,101.648044 L157.606181,101.648044 C155.962619,101.623888 154.595456,100.374392 154.420349,98.7364058 L150.923705,59.222346 C150.843192,58.469421 151.09017,57.7182218 151.601513,57.1607445 C152.112857,56.6032672 152.839016,56.2935338 153.594393,56.3107078 L205.609495,56.3107078 C207.253056,56.3348639 208.62022,57.5843602 208.795326,59.222346 L212.291971,98.7364058 C212.372072,99.4897351 212.124553,100.241144 211.612669,100.79861 C211.100785,101.356076 210.374131,101.665586 209.618405,101.648044 Z" id="Path" fill="#FFFFFF" fill-rule="nonzero"></path>
                    <path d="M163.127425,118.301634 L191.458878,118.301634 L189.333551,116.098076 C189.045945,115.799707 188.663016,115.611903 188.251462,115.567376 L177.293871,114.380512 L185.693012,98.0456308 L183.613732,85.5208275 L173.438928,85.5208275 L168.772419,114.394934 L164.868552,115.385669 C164.256324,115.541621 163.773293,116.012527 163.600839,116.621565 L163.127425,118.301634 Z" id="Path" fill="#FFFFFF" fill-rule="nonzero"></path>
                    <path d="M168.14216,118.301634 L173.207258,86.9528517 C173.341247,86.1276046 174.052248,85.5212817 174.88651,85.5208275 L181.301342,85.5208275 C181.842442,85.5207034 182.351371,85.7784055 182.672293,86.2150241 C182.993215,86.6516427 183.087899,87.2151652 182.927353,87.733038 L173.438928,118.30596 L168.14216,118.301634 Z" id="Path" fill="#DEDEDE" fill-rule="nonzero"></path>
                    <path d="M197.944217,217.616041 C197.765775,218.380469 197.534997,219.131669 197.253522,219.864304 C196.403104,221.910671 195.063443,223.758026 193.896456,225.616917 C192.634498,227.622904 191.471828,229.699556 190.189725,231.691122 C189.536443,232.700605 188.799701,233.499539 187.588107,233.672594 C187.030591,233.750302 186.464317,233.739107 185.910293,233.639425 C185.569262,233.578856 185.222476,233.34379 184.891518,233.31639 C184.603728,233.293316 184.331767,233.476465 184.09434,233.604814 C183.182047,234.122535 182.344579,234.77293 181.436603,235.299304 C180.645181,235.75934 179.791885,236.043437 178.976001,236.452999 C178.721307,236.579905 178.36157,236.741423 178.273795,237.050036 C178.14285,237.50863 178.603314,237.984529 178.945783,238.180657 C179.977509,238.771926 181.53589,238.526766 182.655392,238.541187 C185.042607,238.572914 187.526232,238.78779 189.906252,238.48206 C190.686162,238.381112 191.489096,238.200847 192.008556,237.538914 C192.978407,236.310229 193.303609,234.465759 193.861921,233.027966 C194.331018,231.815144 194.886452,230.559059 195.788673,229.621681 C196.450722,228.953677 197.250165,228.438405 198.131281,228.111783 C198.436338,227.996413 198.578794,227.904118 198.72125,228.230037 C198.957237,228.765063 198.752906,229.672155 198.76154,230.249003 C198.777369,231.415677 198.806147,237.286544 198.807586,237.704758 C198.807586,237.873486 198.727005,238.30468 198.807586,238.453218 C198.91263,238.647904 198.773052,238.531092 199.079548,238.590219 C199.223442,238.619062 199.970257,238.686841 200.10264,238.590219 C200.301215,238.446007 200.199049,237.257701 200.210561,236.928898 C200.249892,235.764627 200.316084,234.603241 200.409136,233.444739 C200.586127,231.219549 200.715632,228.916485 201.272505,226.751865 C201.731529,224.969406 202.258184,223.466718 202.173286,221.58331 C202.12724,220.588248 201.976151,219.536943 201.508492,218.652924 C200.836504,217.380976 199.504037,216.41764 198.478067,215.480263 L197.944217,217.616041 Z" id="Path" fill="#ED442E" fill-rule="nonzero"></path>
                    <path d="M250.252865,49.790888 C250.252865,49.790888 244.744571,55.573785 237.269235,53.6024084 L237.269235,54.6537131 C237.269235,54.6537131 244.941707,56.3842559 251.03997,50.5133896 L250.252865,49.790888 Z" id="Path" fill="#D30F00" fill-rule="nonzero"></path>
                    <ellipse id="Oval" fill="#ED442E" fill-rule="nonzero" cx="236.497959" cy="53.997549" rx="2.14547188" ry="2.15019938"></ellipse>
                    <path d="M261.275209,39.329757 C261.275209,39.329757 254.122197,38.6836877 249.893128,39.6686549 C248.9463,39.8907412 247.598006,39.7465293 246.062648,39.3355254 C240.738539,37.9164804 233.169671,33.3103524 232.481854,29.7137077 C231.62568,25.2243913 230.027008,27.2145155 229.92916,27.341422 L229.92916,27.341422 C230.419841,19.1602811 240.160082,18.9627108 240.160082,18.9627108 C259.23478,18.481043 261.275209,39.329757 261.275209,39.329757 Z" id="Path" fill="#030822" fill-rule="nonzero"></path>
                    <path d="M238.641992,19.4400521 C238.641992,19.4400521 250.334885,26.5064351 250.383809,31.6850843 C250.432734,36.8637335 245.600745,39.2071768 245.600745,39.2071768 L253.284729,41.0992369 C253.284729,41.0992369 258.410263,39.0283541 254.421498,31.2409117 C250.432734,23.4534692 244.704281,19.0723118 238.641992,19.4400521 Z" id="Path" fill="#13193A" fill-rule="nonzero"></path>
                    <polygon id="Path" fill="#A1C6E5" fill-rule="nonzero" points="242.305554 68.0596511 240.449311 112.973004 239.170086 112.005342 241.865236 67.3703182"></polygon>
                    <g id="Group-35" transform="translate(100.740566, 0.000000)" fill-rule="nonzero">
                        <path d="M63.9080097,1.81188398e-13 L3.24482836,1.81188398e-13 C1.45909355,1.81188398e-13 -3.83693077e-13,1.80553295 -3.83693077e-13,4.01053285 L-3.83693077e-13,23.3334849 C-3.83693077e-13,25.5399269 1.45909355,27.3440178 3.24482836,27.3440178 L53.0094155,27.3440178 L55.583694,32.6524577 L56.6053472,27.3440178 L63.9080097,27.3440178 C65.6923056,27.3440178 67.1528381,25.5399269 67.1528381,23.3334849 L67.1528381,4.00909074 C67.1528381,1.80553295 65.6923056,1.81188398e-13 63.9080097,1.81188398e-13 Z" id="Path" fill="#5BBA47"></path>
                        <rect id="Rectangle" fill="#FFFFFF" x="3.71968129" y="6.5991364" width="52.7791838" height="2.14010455" rx="0.38015997"></rect>
                        <rect id="Rectangle" fill="#FFFFFF" x="3.71968129" y="10.6904279" width="52.7791838" height="2.14010455" rx="0.38015997"></rect>
                        <rect id="Rectangle" fill="#FFFFFF" x="3.71968129" y="14.7802773" width="32.4223825" height="2.14010455" rx="0.38015997"></rect>
                    </g>
                    <g id="Group-34" transform="translate(0.000000, 39.232558)" fill-rule="nonzero">
                        <path d="M35.9379573,1.59872116e-13 L96.6025776,1.59872116e-13 C98.3868735,1.59872116e-13 99.847406,1.80553295 99.847406,4.01053285 L99.847406,23.334927 C99.847406,25.5399269 98.3868735,27.3454599 96.6025776,27.3454599 L46.8365515,27.3454599 L44.2622731,32.6524577 L43.2420587,27.3454599 L35.9379573,27.3454599 C34.1536614,27.3454599 32.6931289,25.5399269 32.6931289,23.334927 L32.6931289,4.01053285 C32.6931289,1.80697507 34.1536614,1.59872116e-13 35.9379573,1.59872116e-13 Z" id="Path" fill="#FFFFFF"></path>
                        <rect id="Rectangle" fill="#F06D22" transform="translate(66.307680, 8.740683) rotate(-180.000000) translate(-66.307680, -8.740683) " x="39.9180882" y="7.6706308" width="52.7791838" height="2.14010455" rx="0.38015997"></rect>
                        <rect id="Rectangle" fill="#F06D22" transform="translate(66.307680, 12.831975) rotate(-180.000000) translate(-66.307680, -12.831975) " x="39.9180882" y="11.7619223" width="52.7791838" height="2.14010455" rx="0.38015997"></rect>
                        <rect id="Rectangle" fill="#F06D22" transform="translate(56.055893, 16.923266) rotate(180.000000) translate(-56.055893, -16.923266) " x="39.8447019" y="15.8532138" width="32.4223825" height="2.14010455" rx="0.38015997"></rect>
                        <path d="M3.30548833,22.6657838 C2.57018576,22.0038512 2.04784754,21.1818434 1.57011671,20.328109 C0.423577709,18.3049415 -0.114629155,15.9926141 0.0203694223,13.6698457 C0.291087093,8.54743197 3.67068219,4.11650539 8.53174847,2.51072913 C9.98986624,2.0106197 11.5322383,1.80428822 13.0701913,1.90359704 C15.9826226,2.10405158 18.5482674,3.15102995 20.7239572,5.13971201 C22.7708784,6.96997713 24.1320644,9.44647487 24.5817775,12.158505 C25.1962084,15.7291916 24.3630574,18.9782856 22.1974402,21.8812711 C22.0010119,22.1796466 21.758102,22.444515 21.4779661,22.6657838 C21.168603,21.6146594 20.4518161,20.731635 19.4879006,20.2141816 C18.7005199,19.7713089 17.8785819,19.3931946 17.030177,19.0835603 C16.5711525,18.9206009 16.1308343,18.6898618 15.6343972,18.643714 C15.0098936,18.121667 14.9034114,17.4323341 14.9480188,16.6665689 C14.9652862,16.352187 15.0458673,16.2613335 15.3494854,16.2887338 C16.1826364,16.3651661 16.694902,15.9209934 17.0100317,15.1984918 C17.2811987,14.5360962 17.4481839,13.8355479 17.5050299,13.1218405 C17.6307033,11.7497916 17.6282946,10.3689804 17.4978352,8.99738025 C18.0820482,8.66280865 18.5166105,8.21719389 18.6389211,7.51920831 C18.8216676,6.47511417 18.0935598,5.39064071 17.1539265,5.47428361 C16.5941756,5.52331565 16.2905576,5.41515673 15.8732626,5.00559494 C14.9868704,4.12878661 13.2687662,4.17781865 12.2960372,4.96809985 C12.1766044,5.06472182 12.106096,5.12096446 11.9535675,5.01136342 C11.5599655,4.74748264 11.0819955,4.64097587 10.6139066,4.71284479 C9.67283445,4.81523524 8.85551183,5.16711227 8.38209785,6.03959424 C8.18352298,6.40445034 8.07128502,6.77795916 7.76478904,7.11829923 C7.15323602,7.79609515 7.38058985,8.73203036 8.15330507,9.24109836 C8.24827566,9.30310947 8.3331736,9.34637304 8.34612414,9.47904799 C8.5029695,11.187959 9.36633847,12.67911 9.82967981,14.2942832 C9.82967981,15.1869549 9.80521769,16.0825107 9.84838614,16.9737403 C9.90665122,17.6127975 9.64529,18.2392863 9.15049622,18.6465983 C9.04976985,18.5990083 8.9648719,18.6566931 8.8756571,18.6855355 C8.02921537,18.9584311 7.19902754,19.2795858 6.38915449,19.6474288 C4.9976915,20.2819612 3.74292861,21.054937 3.30548833,22.6657838 Z" id="Path" fill="#FFFFFF"></path>
                        <path d="M15.6315193,18.6393877 C16.1279564,18.6855355 16.5682746,18.9162745 17.0272991,19.079234 C17.875704,19.3888682 18.697642,19.7669826 19.4850227,20.2098552 C20.4489382,20.7273087 21.1657251,21.6103331 21.4750882,22.6614575 C20.8649741,23.4776968 20.062041,24.0776183 19.2303289,24.6357184 C16.9955078,26.1586736 14.3140942,26.8830822 11.6182925,26.69218 C8.41519366,26.4888412 5.6711193,25.2024711 3.43931052,22.8647963 C3.38799164,22.8017008 3.3431571,22.7335761 3.30548833,22.6614575 C3.73717282,21.0506106 4.9976915,20.2776348 6.38627659,19.6330076 C7.19614965,19.2651647 8.02633747,18.9440099 8.87277921,18.6711143 C8.961994,18.6422719 9.04689195,18.5845872 9.14761833,18.6321771 C9.31165843,19.0648128 9.67571235,19.3013203 10.0627894,19.4700482 C11.5456417,20.1391947 13.2435685,20.1391947 14.7264208,19.4700482 C15.1120589,19.3243942 15.4789907,19.0806761 15.6315193,18.6393877 Z M12.0672444,24.8866471 C12.0370265,25.1087334 12.1852381,25.1967026 12.3780572,25.2111238 C12.461537,25.2238225 12.5463697,25.1991394 12.6100856,25.1436123 C12.6738014,25.0880851 12.7099714,25.0073166 12.7090153,24.9227 C12.7205269,24.6905189 12.578071,24.58236 12.3478393,24.570823 C12.1176076,24.559286 12.0715612,24.6890768 12.0672444,24.8866471 L12.0672444,24.8866471 Z M12.0672444,23.2758002 C12.0672444,23.4762547 12.1578981,23.577203 12.3665456,23.564224 C12.5751931,23.5512449 12.7090153,23.4459702 12.7090153,23.2383051 C12.7171053,23.1474875 12.6831341,23.0579766 12.6168672,22.9955034 C12.5506003,22.9330303 12.4593781,22.904515 12.3694235,22.9181547 C12.2801946,22.9205818 12.1962231,22.9609911 12.1385406,23.0292616 C12.080858,23.097532 12.0549278,23.1871974 12.0672444,23.2758002 Z M12.3982025,21.2568336 C12.2255119,21.2518611 12.0801677,21.3853869 12.0701223,21.5582365 C12.059911,21.6775395 12.1166825,21.792649 12.2174575,21.8569726 C12.3182326,21.9212962 12.4463212,21.924181 12.5498777,21.8644592 C12.6534341,21.8047374 12.7153077,21.6923 12.7104543,21.5726577 C12.7104983,21.3986215 12.5718119,21.256427 12.3982025,21.2525073 L12.3982025,21.2568336 Z" id="Shape" fill="#ED442E"></path>
                        <path d="M15.6315193,18.6393877 C15.4789907,19.0806761 15.1120589,19.3171836 14.7264208,19.4830273 C13.2435685,20.1521738 11.5456417,20.1521738 10.0627894,19.4830273 C9.67571235,19.3142994 9.31165843,19.079234 9.14761833,18.6451562 C9.6424121,18.2378442 9.90377332,17.6113554 9.84550824,16.9722982 C9.80233979,16.0810686 9.82967981,15.1855127 9.82680191,14.2928411 C10.1361758,14.0664284 10.4844013,13.8760687 10.6081508,13.4766018 C10.6714646,13.2761472 10.7218277,13.0800191 10.4383549,12.9733022 C9.62054587,12.6464824 9.15596366,11.7773514 9.3375595,10.9139564 C9.39765367,10.5965066 9.62473754,10.3366542 9.93080346,10.2351063 C10.2368694,10.1335585 10.5738102,10.2062765 10.8110425,10.425078 C10.9146468,10.5144894 10.9981058,10.6284168 11.0988322,10.7135018 C11.3405755,10.9067458 11.5808799,11.2052644 11.9262274,11.0278838 C12.271575,10.8505031 12.1507034,10.497184 12.131997,10.2044338 C12.0888286,9.54250122 12.1147297,9.50933248 12.7953522,9.50212189 C14.3781953,9.48481646 15.9610384,9.47472163 17.4892015,8.99449601 C17.6196609,10.3660962 17.6220696,11.7469073 17.4963962,13.1189563 C17.4395503,13.8326636 17.272565,14.533212 17.001398,15.1956076 C16.6862683,15.9166671 16.1740028,16.3622818 15.3408517,16.2858495 C15.0372336,16.2584493 14.9566525,16.3493028 14.9393851,16.6636847 C14.9005335,17.4280077 15.0070157,18.1173406 15.6315193,18.6393877 Z" id="Path" fill="#F87B67"></path>
                        <path d="M17.4949573,8.99305389 C15.9639163,9.47327951 14.3825122,9.48337434 12.801108,9.50067977 C12.1204855,9.50789037 12.0945844,9.5410591 12.1377528,10.2029917 C12.1564592,10.4914155 12.2629413,10.8562716 11.9319832,11.0264416 C11.6010251,11.1966117 11.3463313,10.9053036 11.104588,10.7120597 C10.9981058,10.6255326 10.9146468,10.5116052 10.8167983,10.4236359 C10.579566,10.2048344 10.2426252,10.1321164 9.93655925,10.2336642 C9.63049333,10.335212 9.40340946,10.5950645 9.34331529,10.9125142 C9.16171945,11.7759093 9.62630167,12.6450403 10.4441107,12.9718601 C10.7319004,13.0785769 10.6772203,13.2747051 10.6139066,13.4751597 C10.4901571,13.8746266 10.1419316,14.0649863 9.83255771,14.291399 C9.36921636,12.6762257 8.5058474,11.1850747 8.34900204,9.47616375 C8.3360515,9.3434888 8.25115355,9.30022523 8.15618297,9.23821412 C7.38346774,8.72914612 7.14891917,7.79609515 7.76766693,7.115415 C8.07416292,6.77507492 8.18640088,6.40156611 8.38497574,6.03671001 C8.85838973,5.16422803 9.68002919,4.812351 10.6167845,4.70996055 C11.0848734,4.63809164 11.5628434,4.7445984 11.9564454,5.00847918 C12.1089739,5.11808022 12.1794823,5.06183758 12.298915,4.96521561 C13.2716441,4.17493442 14.9897483,4.12590237 15.8761405,5.0027107 C16.2919965,5.41227249 16.5956146,5.52043141 17.1568044,5.47139937 C18.0964376,5.38775647 18.8245455,6.47222993 18.641799,7.51632407 C18.5137326,8.22007813 18.0791703,8.65271382 17.4949573,8.99305389 Z" id="Path" fill="#18011E"></path>
                    </g>
                    <path d="M237.266357,19.4054413 C237.266357,19.4054413 252.979672,18.1839665 255.443152,41.7164639 L259.528326,41.7164639 C259.528326,41.7164639 257.267738,20.8735184 243.203458,18.9598265 C243.203458,18.9598265 239.367221,18.1926192 237.266357,19.4054413 Z" id="Path" fill="#ED442E" fill-rule="nonzero"></path>
                    <path d="M251.842903,28.8022885 C251.842903,28.8022885 254.220046,27.3601695 255.989952,29.6228542 C255.989952,29.6228542 259.564299,37.1391782 258.744099,40.1950283 C257.923898,43.2508784 255.353937,39.53598 255.353937,39.53598 C255.353937,39.53598 254.710727,34.3977101 251.842903,28.8022885 Z" id="Path" fill="#D30F00" fill-rule="nonzero"></path>
                    <path d="M262.574579,43.8983899 C262.574579,48.5636447 258.923967,52.3448807 254.420059,52.3448807 C252.59619,52.3445313 250.828001,51.7151355 249.412519,50.5624216 C247.411285,48.9331294 246.255019,46.482383 246.268417,43.8983899 C246.268417,39.2345771 249.91759,35.4562254 254.420059,35.4562254 C257.038578,35.465408 259.489368,36.7491663 260.991736,38.8985634 C262.026818,40.3589017 262.580266,42.1071117 262.574579,43.8983899 Z" id="Path" fill="#ED442E" fill-rule="nonzero"></path>
                    <path d="M262.574579,43.8983899 C262.574579,48.5636447 258.923967,52.3448807 254.420059,52.3448807 C252.59619,52.3445313 250.828001,51.7151355 249.412519,50.5624216 L249.412519,50.5624216 C261.860861,51.3454922 260.994614,38.9014476 260.994614,38.9014476 L260.994614,38.9014476 C262.028102,40.3613277 262.580506,42.1084111 262.574579,43.8983899 L262.574579,43.8983899 Z" id="Path" fill="#D30F00" fill-rule="nonzero"></path>
                    <path d="M247.1951,38.1342403 L246.062648,39.3355254 C240.738539,37.9164804 233.169671,33.3103524 232.481854,29.7137077 C231.62568,25.2243913 230.027008,27.2145155 229.92916,27.341422 C229.976645,27.1972101 230.947935,24.5552481 232.35091,26.7645744 C233.794175,29.0243748 241.974596,39.621065 247.1951,38.1342403 Z" id="Path" fill="#030822" fill-rule="nonzero"></path>
                    <path d="M229.661515,53.3889748 C227.205231,49.936542 225.946151,45.767376 226.982194,43.1499301 C228.421142,39.5302115 228.144864,36.7699958 227.908876,34.0948651 C227.996652,34.3371411 229.907576,39.7090342 228.416825,43.5436286 C227.170696,46.7465748 228.959309,51.6786217 229.661515,53.3889748 Z" id="Path" fill="#FF897D" fill-rule="nonzero"></path>
                    <path d="M242.235045,63.2646055 L242.306993,67.7971854 C242.306993,67.7971854 247.97501,65.5662274 252.523526,60.9644257 C252.523526,60.9644257 252.876068,60.3053774 253.235805,61.2903446 C253.595542,62.2753119 255.892103,65.4306682 256.545386,65.79264 C256.545386,65.79264 247.726072,71.2726921 245.202157,73.6723781 C245.202157,73.6723781 244.186259,74.2694153 244.217916,72.8893075 C244.249573,71.5091996 242.304115,68.0596511 242.304115,68.0596511 C242.304115,68.0596511 240.775952,69.3085261 238.283693,69.3416948 C238.283693,69.3416948 237.923956,69.5060964 238.283693,68.3884542 C238.64343,67.270812 238.349885,65.3974994 238.349885,65.3974994 C238.349885,65.3974994 241.332825,64.5105963 241.659466,63.85299 C241.986107,63.1953838 242.235045,63.2646055 242.235045,63.2646055 Z" id="Path" fill="#F2F2F2" fill-rule="nonzero"></path>
                    <path d="M251.913411,110.583413 C251.913411,110.583413 253.481865,112.484126 252.345096,118.070895 L281.066504,118.070895 C281.066504,118.070895 283.584663,117.378678 282.030599,111.450127 C282.036355,111.450127 268.834004,118.973661 251.913411,110.583413 Z" id="Path" fill="#A1C6E5"></path>
                    <path d="M243.498442,118.069453 C243.498442,118.069453 238.236208,116.608586 234.056063,117.636817 C230.781017,118.447288 227.685839,117.204181 225.553318,116.787409 C224.966227,116.673482 224.449645,116.624449 224.023716,116.69944 C222.055235,117.044106 216.39729,114.481461 221.662402,110.883374 C226.927514,107.285287 229.53201,107.580921 231.399765,108.369761 C233.26752,109.1586 240.358657,112.407694 243.456712,111.564054 C243.456712,111.564054 243.522904,111.829404 243.600607,112.263482 C243.859618,113.578694 244.275474,116.426879 243.498442,118.069453 Z" id="Path" fill="#F87B67" fill-rule="nonzero"></path>
                    <path d="M251.828514,109.712373 C251.828514,109.712373 253.563885,112.287998 253.986936,115.179446 C254.409987,118.070895 259.053473,118.063684 259.053473,118.063684 L252.347974,118.063684 C252.347974,118.063684 253.912111,114.286775 251.301858,109.340307 L251.828514,109.712373 Z" id="Path" fill="#A1C6E5"></path>
                    <path d="M186.441265,134.953782 C186.441265,134.953782 215.466291,132.303167 220.777449,138.922493 C226.088607,145.541819 260.711141,125.053635 260.711141,125.053635 L214.306498,125.053635 C214.306498,125.053635 204.825268,124.367186 186.441265,134.953782 Z" id="Path" fill="#0A5CE0" fill-rule="nonzero"></path>
                    <path d="M243.498442,118.069453 C243.498442,118.069453 238.236208,116.608586 234.056063,117.636817 C230.781017,118.447288 227.685839,117.204181 225.553318,116.787409 C230.533518,117.282056 233.794175,116.879705 233.794175,116.879705 C242.540102,117.06718 243.579023,112.426441 243.606363,112.264924 C243.859618,113.578694 244.275474,116.426879 243.498442,118.069453 Z" id="Path" fill="#E54F48" opacity="0.64"></path>
                    <path d="M243.730113,112.973004 C243.730113,112.973004 243.760331,116.289878 242.578954,116.493217 C241.397577,116.696555 239.168647,117.345509 239.168647,117.345509 L243.497003,118.066568 C243.497003,118.066568 244.330154,116.804714 243.730113,112.973004 Z" id="Path" fill="#E54F48"></path>
                    <path d="M307.993543,116.647523 C310.328956,115.3251 314.336427,111.424168 313.668755,108.679816 C313.510794,107.973564 313.031325,107.382518 312.373701,107.08339 C310.826832,106.362331 308.610851,107.227602 308.363352,107.334319 L309.101533,108.875944 C309.635383,108.658184 310.941948,108.299097 311.557817,108.58752 C311.740086,108.674531 311.865813,108.848328 311.891653,109.048999 C312.281608,110.648308 309.14614,114.018541 307.045276,115.206847 L307.993543,116.647523 Z" id="Path" fill="#FFFFFF" fill-rule="nonzero"></path>
                    <path d="M309.235355,105.655693 L298.886439,105.655693 C298.798414,105.655309 298.713864,105.690085 298.651485,105.75233 C298.589107,105.814575 298.554041,105.899161 298.554042,105.98738 L298.554042,113.857023 C298.554042,116.146847 300.406229,118.003115 302.691018,118.003115 L305.42502,118.003115 C307.709809,118.003115 309.561996,116.146847 309.561996,113.857023 L309.561996,105.98738 C309.562012,105.80587 309.41645,105.65806 309.235355,105.655693 Z" id="Path" fill="#FFFFFF" fill-rule="nonzero"></path>
                    <path d="M302.134145,86.629817 C302.22336,86.7149021 301.364308,87.3508765 300.790168,88.8535645 C300.459829,89.7224254 300.32329,90.6532304 300.39014,91.5806115 C300.42097,92.1222947 300.530026,92.6566333 300.713903,93.1669423 C300.898206,93.7146865 301.176236,94.2260994 301.535543,94.678283 C301.892402,95.1484138 302.355743,95.550765 302.762966,96.0108009 C303.185453,96.4565089 303.50436,96.9903409 303.696843,97.5740579 C304.050824,98.7277531 303.801886,99.8021317 303.469489,100.579434 C303.207318,101.201358 302.822077,101.763568 302.337037,102.232102 C301.994567,102.559463 301.761458,102.677717 301.734118,102.650317 C301.706778,102.622916 301.878012,102.429672 302.15429,102.073469 C302.539316,101.574189 302.84287,101.016854 303.053633,100.422243 C303.311205,99.6867622 303.473806,98.7133319 303.144287,97.7600912 C302.96316,97.2621613 302.676458,96.8095124 302.303941,96.4333418 C301.92262,96.0093588 301.447767,95.6070076 301.040545,95.0763078 C300.637751,94.5682807 300.329239,93.991904 300.12969,93.3746075 C299.935136,92.8081832 299.827429,92.2154617 299.810244,91.6166644 C299.763865,90.6084228 299.958747,89.6036845 300.378628,88.6862787 C300.652722,88.0709764 301.043714,87.5150345 301.529787,87.0494737 C301.882329,86.726439 302.111122,86.5995325 302.134145,86.629817 Z" id="Path" fill="#FFFFFF" fill-rule="nonzero"></path>
                    <path d="M307.271191,85.1458766 C307.302847,85.1761611 307.143124,85.4112265 306.839506,85.8164619 C306.535888,86.2216974 306.069669,86.7942186 305.583304,87.5470047 C305.09694,88.2997908 304.599064,89.2443787 304.432146,90.3822106 C304.335931,90.9664205 304.356474,91.5639659 304.492581,92.1401536 C304.65677,92.7530237 304.955146,93.3215319 305.366023,93.8043589 C305.783318,94.3292902 306.261049,94.8138422 306.681222,95.344542 C307.881364,96.7397476 308.18449,98.6979016 307.462571,100.391958 C307.189332,101.093822 306.743918,101.715304 306.167517,102.198933 C306.01474,102.329975 305.846579,102.441844 305.666763,102.532063 C305.544453,102.594074 305.476822,102.61859 305.46531,102.599843 C305.453799,102.581095 305.498406,102.521968 305.593377,102.42823 C305.73548,102.2992 305.870918,102.162983 305.99916,102.020111 C306.467754,101.506577 306.821908,100.89896 307.038081,100.237652 C307.368818,99.2744831 307.383942,98.2306205 307.081249,97.2582338 C306.886329,96.696 306.585407,96.1765496 306.194857,95.7281456 C305.79483,95.236383 305.314221,94.7561574 304.865269,94.1922889 C304.398805,93.6379188 304.06421,92.984515 303.886784,92.2814813 C303.739207,91.6250632 303.727454,90.9452948 303.852249,90.2841465 C304.073847,89.0280609 304.666694,88.0301146 305.212056,87.2874233 C305.647861,86.7046252 306.129013,86.1573142 306.651004,85.6506183 C307.017936,85.2972991 307.238095,85.1170342 307.271191,85.1458766 Z" id="Path" fill="#FFFFFF" fill-rule="nonzero"></path>
                    <path d="M138.089725,93.6514943 C141.399306,92.2194702 141.920205,95.9228317 140.451039,98.8431226 C139.458165,100.820268 135.876623,105.879221 133.464945,110.183946 L130.712237,110.183946 C131.647554,103.671337 134.669345,95.1311084 138.089725,93.6514943 Z" id="Path" fill="#1F2A83"></path>
                    <path d="M131.695039,110.183946 C134.041964,102.294113 139.448092,94.85999 139.46536,94.8297055 C139.487607,94.7984309 139.521383,94.7773426 139.5592,94.7711161 C139.597018,94.7648896 139.635751,94.7740394 139.666812,94.7965368 C139.731394,94.8424513 139.746828,94.9320313 139.701347,94.9969913 C139.679763,95.0272758 134.331192,102.384967 131.990023,110.183946 L131.695039,110.183946 Z" id="Path" fill="#FFFFFF"></path>
                    <path d="M131.103631,81.9530252 C127.771027,78.677973 125.491733,82.8298336 125.957952,87.0004416 C126.39827,90.9561739 130.246018,104.529398 129.786994,110.237305 L131.099314,110.237305 C134.093766,102.922877 135.371552,86.1452651 131.103631,81.9530252 Z" id="Path" fill="#00D569"></path>
                    <path d="M130.617267,110.238747 C133.388681,98.7017949 128.938014,82.750517 128.923625,82.6942744 C128.899365,82.5917148 128.797576,82.5275555 128.694832,82.5500625 C128.647488,82.561523 128.606877,82.5918811 128.582421,82.6340933 C128.557965,82.6763054 128.551789,82.7267023 128.565326,82.7735909 C128.579716,82.8269493 133.036139,98.799859 130.237384,110.22721 L130.617267,110.238747 Z" id="Path" fill="#FFFFFF"></path>
                    <path d="M122.898748,89.1953467 C119.403543,87.5224887 118.725798,91.4580313 120.217987,94.64223 C121.448288,97.2827499 126.693255,105.035581 128.781169,110.059924 L130.507907,110.000797 C130.320843,102.963256 127.024213,91.1638391 122.898748,89.1953467 Z" id="Path" fill="#1B65F8"></path>
                    <path d="M129.880525,110.022429 C128.297682,100.550591 121.412315,90.4312426 121.39073,90.3951897 C121.342654,90.3242871 121.24707,90.3044895 121.174888,90.350484 C121.140913,90.3730773 121.117378,90.4083633 121.109538,90.4484648 C121.101697,90.4885663 121.110204,90.5301444 121.133159,90.5639176 C121.157621,90.5999706 127.994064,100.65875 129.576907,110.032524 L129.880525,110.022429 Z" id="Path" fill="#FFFFFF"></path>
                    <path d="M126.142138,108.77788 L136.423423,108.77788 C136.732565,108.77788 136.983174,109.029041 136.983174,109.338864 L136.983174,111.882762 C136.983174,112.031162 136.924352,112.173484 136.819648,112.278418 C136.714944,112.383353 136.572935,112.442304 136.424862,112.442304 L126.145015,112.442304 C125.835874,112.442304 125.585265,112.191143 125.585265,111.88132 L125.585265,109.334538 C125.586844,109.0272 125.835472,108.778668 126.142138,108.77788 L126.142138,108.77788 Z" id="Path" fill="#FFFFFF" fill-rule="nonzero"></path>
                    <polygon id="Path" fill="#FFFFFF" points="134.659272 110.847321 127.904849 110.847321 126.142138 112.442304 127.582525 118.003115 131.282061 118.003115 134.981597 118.003115 136.421984 112.442304"></polygon>
                    <polygon id="Path" fill="#B5B5B5" points="126.142138 112.442304 126.438561 113.585905 136.127 113.585905 136.421984 112.442304"></polygon>
                    <path d="M249.389496,161.827669 L256.024487,161.827669 L266.960494,142.151397 L279.987292,142.669118 L267.180653,164.397525 C266.861701,165.040191 266.204614,165.443935 265.488449,165.437292 L249.389496,165.437373 L249.389496,161.827669 Z" id="Path" fill="#75A5C6"></path>
                    <path d="M248.449863,161.827669 L253.63871,161.827669 L265.840992,140.97607 C266.181547,140.407368 266.796587,140.061332 267.45837,140.066093 L267.45837,140.066093 L278.32099,140.066093 C278.987879,140.02827 279.620911,140.363342 279.965729,140.936673 C280.310548,141.510004 280.310548,142.22748 279.965729,142.800811 C279.620911,143.374142 278.987879,143.709214 278.32099,143.671391 L268.536142,143.671391 L256.405808,164.400409 C256.087312,165.042134 255.431613,165.445712 254.716483,165.440177 L248.444107,165.440233 L248.449863,161.827669 Z" id="Path" fill="#A1C6E5"></path>
                    <polygon id="Path" fill="#FFFFFF" points="332.612509 124.318154 338.998561 240.29192 336.165272 240.29192 327.581945 129.779459 279.492294 129.779459 270.908968 240.29192 268.07424 240.29192 274.461731 124.318154"></polygon>
                    <path d="M303.242135,118.003115 L117.507009,118.003115 C115.869486,118.003115 114.529825,119.589446 114.529825,121.52477 L114.529825,121.52477 C114.529825,123.461536 115.869486,125.046424 117.507009,125.046424 L303.242135,125.046424 C304.881097,125.046424 306.220758,123.460093 306.220758,121.52477 L306.220758,121.52477 C306.220758,119.588004 304.881097,118.003115 303.242135,118.003115 Z" id="Path" fill="#F2F2F2"></path>
                    <path d="M335.11484,118.003115 L256.533874,118.003115 C254.896351,118.003115 253.55669,119.589446 253.55669,121.52477 L253.55669,121.52477 C253.55669,123.461536 254.896351,125.046424 256.533874,125.046424 L335.11484,125.046424 C336.752363,125.046424 338.092024,123.460093 338.092024,121.52477 L338.092024,121.52477 C338.094902,119.588004 336.755241,118.003115 335.11484,118.003115 Z" id="Path" fill="#A1C6E5"></path>
                </g>
                <path d="M0,240.098697 L139.308586,241 C178.103948,239.000808 205.291789,238.001212 220.87211,238.001212 C236.452432,238.001212 265.495061,232.667475 308,222" id="Path-28" stroke="#030822"></path>
            </g>
        </g>
    </g>
</svg>